<svg id="SvgjsSvg1001" width="288" height="288" xmlns="http://www.w3.org/2000/svg" version="1.1" xmlns:xlink="http://www.w3.org/1999/xlink" xmlns:svgjs="http://svgjs.com/svgjs"><defs id="SvgjsDefs1002"></defs><g id="SvgjsG1008" transform="matrix(1,0,0,1,0,0)"><svg xmlns="http://www.w3.org/2000/svg" width="288" height="288" version="1.0" viewBox="0 0 551 551"><path d="M2541 5500 c-377 -32 -754 -142 -1081 -317 -649 -348 -1155 -976-1346 -1672 -188 -683 -120 -1376 197 -2001 539 -1066 1725 -1661 2909 -1459
1199 204 2115 1166 2265 2379 20 164 20 496 0 660 -42 334 -133 632 -284 925
-417 808 -1192 1351 -2097 1470 -147 19 -424 27 -563 15z m359 -786 c146 -41
278 -169 329 -322 16 -45 21 -87 21 -159 l0 -98 -239 -239 c-131 -131 -244
-237 -251 -234 -7 2 -122 118 -256 258 l-244 255 0 57 c-1 246 174 456 415
498 61 10 151 4 225 -16z m-999 -443 c31 -12 77 -35 102 -52 25 -16 184 -174
353 -351 l308 -321 -89 -83 -90 -84 -522 0 -522 0 -67 77 c-126 144 -168 295
-129 461 42 179 173 315 355 368 69 20 232 12 301 -15z m2050 -22 c228 -65
379 -310 340 -546 -19 -108 -67 -198 -154 -290 -214 -223 -2130 -2109 -2169
-2134 -245 -159 -588 -62 -713 202 -76 163 -66 332 30 484 43 67 2195 2203
2255 2238 126 74 264 89 411 46z m-1621 -1017 c0 -4 -220 -227 -488 -495
l-489 -487 -80 0 c-195 0 -365 107 -448 282 -134 282 27 621 328 694 59 14
1177 20 1177 6z m2001 -16 c231 -49 393 -250 393 -486 0 -247 -174 -449 -421
-489 -52 -8 -1133 -3 -1133 5 0 2 222 224 493 494 l492 489 55 0 c30 1 85 -6
121 -13z m-211 -1194 c159 -168 192 -375 93 -582 -34 -72 -141 -176 -216 -213
-161 -78 -344 -69 -489 24 -27 18 -188 176 -359 353 l-310 321 88 85 88 85
520 -2 520 -3 65 -68z m-1271 -314 c58 -62 170 -180 249 -261 157 -164 154
-158 131 -269 -80 -381 -559 -523 -832 -246 -98 100 -147 213 -147 343 l0 60
242 242 c134 134 245 243 247 243 2 0 51 -51 110 -112z" transform="matrix(.1 0 0 -.1 0 551)" fill="#fc5655" class="color000 svgShape"></path></svg></g></svg>